<?xml version="1.0" encoding="UTF-8"?>
<svg xmlns="http://www.w3.org/2000/svg" xmlns:xlink="http://www.w3.org/1999/xlink" viewBox="0 0 458.16 458.16">
  <defs>
    <style>
      .cls-1 {
        fill: none;
      }

      .cls-2 {
        fill: url(#linear-gradient-5);
      }

      .cls-3 {
        fill: url(#linear-gradient-4);
      }

      .cls-4 {
        fill: url(#linear-gradient-3);
      }

      .cls-5 {
        fill: url(#linear-gradient-2);
      }

      .cls-6 {
        fill: url(#linear-gradient);
      }

      .cls-7 {
        fill: #fff;
      }

      .cls-8 {
        fill: url(#radial-gradient);
        filter: url(#drop-shadow-1);
      }

      .cls-9 {
        opacity: .44;
      }

      .cls-10 {
        clip-path: url(#clippath);
      }
    </style>
    <radialGradient id="radial-gradient" cx="229.08" cy="253.76" fx="229.08" fy="253.76" r="166.74" gradientUnits="userSpaceOnUse">
      <stop offset="0" stop-color="#fff"/>
      <stop offset=".86" stop-color="#fff"/>
      <stop offset="1" stop-color="#fff"/>
    </radialGradient>
    <filter id="drop-shadow-1" x="9.38" y="60.38" width="414" height="414" filterUnits="userSpaceOnUse">
      <feOffset dx="-13.21" dy="13.21"/>
      <feGaussianBlur result="blur" stdDeviation="13.21"/>
      <feFlood flood-color="#000" flood-opacity=".1"/>
      <feComposite in2="blur" operator="in"/>
      <feComposite in="SourceGraphic"/>
    </filter>
    <clipPath id="clippath">
      <circle class="cls-1" cx="229.08" cy="254.15" r="167.12"/>
    </clipPath>
    <linearGradient id="linear-gradient" x1="154.01" y1="286.15" x2="96.47" y2="112.7" gradientTransform="translate(47.9 -23.31) rotate(13.53)" gradientUnits="userSpaceOnUse">
      <stop offset=".01" stop-color="#f25022"/>
      <stop offset=".24" stop-color="#f68666"/>
      <stop offset=".54" stop-color="#fac6b8"/>
      <stop offset=".75" stop-color="#fdefeb"/>
      <stop offset=".85" stop-color="#fff"/>
    </linearGradient>
    <linearGradient id="linear-gradient-2" x1="333.5" y1="240.37" x2="285.99" y2="97.15" gradientTransform="translate(42.75 -66.69) rotate(13.53)" gradientUnits="userSpaceOnUse">
      <stop offset=".01" stop-color="#7fba00"/>
      <stop offset=".33" stop-color="#b2d565"/>
      <stop offset=".6" stop-color="#dbebb8"/>
      <stop offset=".8" stop-color="#f5f9eb"/>
      <stop offset=".89" stop-color="#fff"/>
    </linearGradient>
    <linearGradient id="linear-gradient-3" x1="182.6" y1="421.86" x2="84.65" y2="126.58" gradientTransform="translate(91.28 -28.45) rotate(13.53)" gradientUnits="userSpaceOnUse">
      <stop offset=".01" stop-color="#00a4ef"/>
      <stop offset=".3" stop-color="#65c8f5"/>
      <stop offset=".56" stop-color="#b8e5fa"/>
      <stop offset=".74" stop-color="#ebf7fd"/>
      <stop offset=".83" stop-color="#fff"/>
    </linearGradient>
    <linearGradient id="linear-gradient-4" x1="359.56" y1="368.46" x2="284.83" y2="143.16" gradientTransform="translate(86.13 -71.83) rotate(13.53)" gradientUnits="userSpaceOnUse">
      <stop offset=".01" stop-color="#ffb900"/>
      <stop offset=".35" stop-color="#ffd465"/>
      <stop offset=".64" stop-color="#ffebb8"/>
      <stop offset=".84" stop-color="#fff9eb"/>
      <stop offset=".94" stop-color="#fff"/>
    </linearGradient>
    <linearGradient id="linear-gradient-5" x1="84.74" y1="124.42" x2="331.57" y2="124.42" gradientUnits="userSpaceOnUse">
      <stop offset="0" stop-color="#7e95a1"/>
      <stop offset=".99" stop-color="#1d4066"/>
    </linearGradient>
  </defs>
  <g id="Layer_4" data-name="Layer 4">
    <circle class="cls-8" cx="229.08" cy="253.76" r="166.74"/>
    <g class="cls-10">
      <g>
        <rect class="cls-6" x="44.12" y="112.18" width="156.15" height="156.15" transform="translate(-41.12 33.87) rotate(-13.53)"/>
        <rect class="cls-5" x="224.41" y="68.8" width="156.15" height="156.15" transform="translate(-25.97 74.84) rotate(-13.53)"/>
        <rect class="cls-4" x="87.5" y="292.46" width="156.15" height="156.15" transform="translate(-82.09 49.02) rotate(-13.53)"/>
        <rect class="cls-3" x="267.79" y="249.08" width="156.15" height="156.15" transform="translate(-66.94 89.99) rotate(-13.53)"/>
      </g>
    </g>
  </g>
  <g id="Layer_2" data-name="Layer 2">
    <g class="cls-9">
      <path class="cls-2" d="M281.43,21.55s0,0,0,0c-1.62,0-3.26.19-4.9.58l-175.8,42.3c-11.2,2.7-18.1,13.96-15.4,25.17l29.29,121.71c2.3,9.56,10.85,15.99,20.27,15.99,1.62,0,3.26-.19,4.9-.58l175.8-42.3c11.2-2.7,18.1-13.96,15.4-25.17l-29.29-121.71c-2.3-9.56-10.85-15.99-20.27-15.99M275.55,36.95l-65.02,74.03c-2.64,3-6.9,4.02-10.61,2.54l-91.34-36.4,166.96-40.17ZM312.26,170.63l-175.8,42.3c-.53.13-1.06.19-1.58.19-3.09,0-5.76-2.11-6.49-5.13l-28.67-119.15,94.96,37.84c2.83,1.13,5.79,1.67,8.72,1.67,6.67,0,13.21-2.82,17.78-8.03l67.39-76.73,28.63,118.97c.86,3.59-1.35,7.21-4.94,8.07Z"/>
    </g>
    <path class="cls-7" d="M275.55,36.95l-65.02,74.03c-2.64,3-6.9,4.02-10.61,2.54l-91.34-36.4,166.96-40.17Z"/>
    <path class="cls-7" d="M312.26,170.63l-175.8,42.3c-.53.13-1.06.19-1.58.19-3.09,0-5.76-2.11-6.49-5.13l-28.67-119.15,94.96,37.84c2.83,1.13,5.79,1.67,8.72,1.67,6.67,0,13.21-2.82,17.78-8.03l67.39-76.73,28.63,118.97c.86,3.59-1.35,7.21-4.94,8.07Z"/>
  </g>
</svg>